<?xml version="1.0" standalone="no"?>
<!DOCTYPE svg PUBLIC "-//W3C//DTD SVG 20010904//EN"
 "http://www.w3.org/TR/2001/REC-SVG-20010904/DTD/svg10.dtd">
<svg version="1.0" xmlns="http://www.w3.org/2000/svg"
 width="512.000000pt" height="512.000000pt" viewBox="0 0 512.000000 512.000000"
 preserveAspectRatio="xMidYMid meet">
<metadata>
Created by potrace 1.14, written by Peter Selinger 2001-2017
</metadata>
<g transform="translate(0.000000,512.000000) scale(0.100000,-0.100000)"
fill="#000000" stroke="none">
<path d="M1990 4468 c0 -4 -6 -8 -14 -8 -20 0 -39 -54 -31 -88 7 -34 25 -52
73 -77 111 -55 210 -233 257 -460 18 -86 19 -115 2 -115 -31 0 -196 -103 -253
-157 -34 -33 -23 -35 -164 25 -58 25 -84 35 -90 36 -8 2 -202 77 -225 87 -24
11 -133 48 -156 53 -9 3 -39 12 -65 21 -27 9 -57 19 -66 21 -10 2 -26 6 -35 8
-10 2 -30 9 -45 15 -16 6 -28 8 -28 6 0 -2 -11 0 -24 5 -13 5 -43 12 -67 15
-24 4 -47 9 -51 11 -4 2 -51 7 -105 9 -85 4 -139 0 -228 -19 -41 -9 -132 -44
-192 -74 -124 -63 -280 -200 -315 -278 -6 -13 -15 -24 -20 -24 -4 0 -8 -7 -8
-15 0 -8 -5 -15 -11 -15 -5 0 -8 -4 -5 -9 4 -5 3 -11 -1 -13 -13 -5 -56 -103
-50 -112 1 -1 -3 -9 -9 -17 -7 -8 -15 -30 -20 -49 -4 -19 -9 -39 -10 -45 -2
-5 -6 -26 -9 -45 -4 -19 -10 -51 -14 -71 -9 -37 -7 -290 2 -324 3 -11 10 -42
17 -70 13 -60 77 -212 99 -240 9 -11 23 -33 31 -49 28 -56 228 -246 258 -246
6 0 12 -3 14 -7 3 -7 94 -57 107 -59 3 0 20 -6 36 -13 94 -39 296 -59 377 -37
23 7 27 5 33 -23 4 -17 10 -31 14 -31 4 0 14 -12 21 -27 28 -56 104 -143 181
-208 86 -72 221 -133 334 -151 22 -3 43 -9 46 -12 3 -4 20 -50 38 -102 40
-117 125 -292 186 -383 55 -82 46 -71 146 -183 74 -84 230 -196 321 -230 183
-69 375 -73 546 -10 42 15 162 75 172 86 3 3 23 18 45 34 40 29 172 161 210
209 46 60 136 197 128 197 -3 0 2 9 12 20 10 11 14 20 10 20 -4 0 -1 8 8 18
10 10 14 22 10 25 -3 4 -1 7 6 7 7 0 9 5 6 10 -3 6 -1 10 4 10 6 0 10 3 9 8
-1 4 3 16 9 27 6 11 11 23 12 28 0 4 7 23 15 41 8 19 25 66 37 105 22 68 24
71 58 77 68 11 166 46 246 87 61 32 102 64 173 134 50 51 92 99 92 108 0 8 5
15 10 15 6 0 10 5 10 10 0 6 12 28 26 49 22 34 29 39 52 33 15 -4 68 -6 117
-6 161 0 339 64 475 169 55 43 160 147 160 159 0 4 9 17 21 29 11 12 28 38 38
57 9 19 22 44 28 55 74 139 98 250 96 455 -1 120 -5 161 -26 241 -28 108 -77
221 -132 303 -50 76 -190 216 -215 216 -6 0 -10 3 -10 8 0 4 -17 16 -37 27
-21 11 -40 22 -43 26 -4 5 -34 19 -50 24 -3 1 -22 9 -43 18 -39 17 -96 34
-152 46 -74 15 -250 4 -365 -24 -156 -37 -453 -136 -697 -234 -111 -45 -204
-81 -207 -81 -4 0 -19 11 -34 24 -67 60 -88 76 -104 82 -10 3 -18 9 -18 14 0
5 -10 12 -22 16 -13 3 -36 15 -51 26 -15 11 -35 21 -44 22 -33 5 -37 30 -20
120 34 172 106 327 190 407 51 48 61 56 85 63 29 9 62 58 62 90 0 33 -35 73
-71 81 -30 7 -139 -36 -139 -55 0 -5 -5 -10 -12 -10 -24 0 -128 -126 -171
-209 -62 -118 -91 -207 -132 -406 -4 -18 -12 -20 -95 -20 -86 0 -91 1 -95 23
-3 12 -8 34 -11 50 -3 15 -8 38 -11 52 -2 14 -11 50 -21 80 -9 30 -17 57 -17
60 -1 3 -7 19 -14 35 -6 17 -21 54 -32 83 -12 28 -26 52 -31 52 -5 0 -6 5 -3
10 3 6 2 10 -3 10 -5 0 -14 11 -20 24 -30 67 -152 180 -227 211 -35 15 -85 17
-85 3z"/>
</g>
</svg>
